<?xml version="1.0" encoding="UTF-8"?>
<svg version="1.1" xmlns="http://www.w3.org/2000/svg" width="1200" height="987">
<path d="M0 0 C4.13174527 2.06587264 6.28378106 3.74924156 8 8 C8.251849 10.06724918 8.251849 10.06724918 8.25447559 12.31730461 C8.26030779 13.17848392 8.26613998 14.03966324 8.27214891 14.92693889 C8.26836958 15.86836809 8.26459026 16.80979728 8.26069641 17.77975464 C8.26452196 18.78349282 8.26834751 19.78723101 8.27228898 20.8213855 C8.28263191 24.19461581 8.27862433 27.56767632 8.2746582 30.94091797 C8.27900397 33.35538898 8.28418667 35.76985861 8.29014587 38.18432617 C8.30216765 44.06798395 8.30468543 49.95159939 8.30234561 55.83526479 C8.30056315 60.6177322 8.30231055 65.40018576 8.30657005 70.18265152 C8.30716524 70.86311609 8.30776043 71.54358066 8.30837366 72.24466536 C8.3095854 73.62700684 8.31079953 75.00934832 8.31201603 76.39168979 C8.32289519 89.35861823 8.32072741 102.32552066 8.31463119 115.29245056 C8.3094627 127.15425171 8.32071498 139.01597072 8.33972941 150.87775563 C8.35910335 163.05719267 8.36736452 175.23659085 8.36360615 187.4160434 C8.3616933 194.25395098 8.36418974 201.09178867 8.37832069 207.92968369 C8.3914743 214.35975397 8.38898044 220.7897009 8.37590981 227.21977234 C8.37353853 229.58126505 8.37629833 231.94276926 8.38453293 234.30424881 C8.3949553 237.52511769 8.38693557 240.74542949 8.3742218 243.96627808 C8.38159609 244.90324583 8.38897037 245.84021358 8.39656812 246.8055743 C8.34759215 252.69363004 7.54414555 257.01235932 3.59106445 261.65454102 C-1.78565181 266.146643 -7.71733092 269.51373776 -13.8125 272.9375 C-15.55587545 273.92977694 -17.29924442 274.92206552 -19.04220581 275.91506958 C-20.84147826 276.9389697 -22.64252745 277.95968801 -24.44384766 278.97998047 C-29.9814593 282.12047661 -35.48895003 285.31321009 -41 288.5 C-43.16914343 289.75152292 -45.3384146 291.00282448 -47.5078125 292.25390625 C-51.81601651 294.73930902 -56.12322789 297.22641977 -60.4296875 299.71484375 C-72.23629484 306.53502637 -84.06027 313.3232326 -95.90472412 320.07736206 C-103.96263212 324.67394223 -111.99417786 329.3132416 -120 334 C-128.59522664 339.03180685 -137.22311647 344.00389913 -145.875 348.9375 C-155.11671868 354.20759203 -164.34841533 359.49414366 -173.5625 364.8125 C-174.62847412 365.42746338 -175.69444824 366.04242676 -176.79272461 366.67602539 C-181.78186924 369.55638419 -186.76647449 372.44415093 -191.7421875 375.34765625 C-192.62447021 375.86158936 -193.50675293 376.37552246 -194.41577148 376.9050293 C-196.04692406 377.85586381 -197.67673876 378.80899879 -199.30493164 379.76489258 C-200.01770264 380.1802124 -200.73047363 380.59553223 -201.46484375 381.0234375 C-202.079646 381.38356934 -202.69444824 381.74370117 -203.32788086 382.11474609 C-207.28208304 384.20818121 -210.59582828 384.36701431 -215 384 C-218.50330348 382.67908229 -221.26862895 380.8849173 -223.678895 377.9686327 C-225.58133485 373.6936923 -225.41762403 369.81979798 -225.38768005 365.18937683 C-225.39306559 364.19436246 -225.39845113 363.19934808 -225.40399987 362.17418176 C-225.4183201 358.836292 -225.41116551 355.49879654 -225.40405273 352.16088867 C-225.40975423 349.76921774 -225.41671762 347.37754952 -225.42485046 344.98588562 C-225.44095571 339.16116015 -225.44287703 333.33655854 -225.43763756 327.51181551 C-225.43359501 322.77610331 -225.43504042 318.04042297 -225.44038582 313.3047123 C-225.44113424 312.63051139 -225.44188266 311.95631048 -225.44265376 311.26167924 C-225.44418526 309.89198475 -225.44572361 308.52229027 -225.44726873 307.1525958 C-225.46099659 294.30767436 -225.45555458 281.46281384 -225.44408352 268.61789379 C-225.43415557 256.87387696 -225.44708364 245.13001778 -225.47101771 233.38602527 C-225.49541872 221.32179956 -225.50501384 209.25764724 -225.49836498 197.19339734 C-225.49487437 190.42249139 -225.49709409 183.6517066 -225.51461601 176.88081932 C-225.53007509 170.51222417 -225.52614067 164.14392998 -225.50731087 157.77534676 C-225.50362191 155.43888278 -225.50674231 153.10239656 -225.51719666 150.76595306 C-225.53038693 147.57414607 -225.51887533 144.38333821 -225.50120544 141.1915741 C-225.51561295 139.80755702 -225.51561295 139.80755702 -225.53031152 138.39557999 C-225.45459998 131.73963073 -224.04580179 126.32536461 -219.46254438 121.32142705 C-214.55922856 116.68828485 -208.44884403 113.68572236 -202.5625 110.5 C-200.30887857 109.25965901 -198.05629895 108.0174235 -195.8046875 106.7734375 C-194.09684082 105.83129395 -194.09684082 105.83129395 -192.35449219 104.87011719 C-187.25594524 102.02769582 -182.21993639 99.08244877 -177.1875 96.125 C-168.53172995 91.04787243 -159.84276676 86.03225147 -151.125 81.0625 C-138.79951217 74.03438099 -126.50277644 66.95759399 -114.21777344 59.85888672 C-108.81329355 56.73675395 -103.40652588 53.61858796 -98 50.5 C-95.8333225 49.25001878 -93.66665583 48.00001879 -91.5 46.75 C-87.16666667 44.25 -82.83333333 41.75 -78.5 39.25 C-77.4272583 38.63108887 -76.3545166 38.01217773 -75.24926758 37.37451172 C-73.0851182 36.12600778 -70.92089307 34.87763513 -68.7565918 33.62939453 C-62.19963668 29.84746556 -55.64547296 26.06076124 -49.09375 22.26977539 C-45.85381518 20.39885767 -42.60872402 18.53712362 -39.36328125 16.67578125 C-35.08308141 14.21711058 -30.83639105 11.7104186 -26.60546875 9.16796875 C-24.57035411 7.96607538 -22.53519957 6.76424955 -20.5 5.5625 C-19.58710205 5.00030762 -18.6742041 4.43811523 -17.73364258 3.85888672 C-11.80702794 0.39598546 -6.88874096 -1.1686257 0 0 Z " fill="#F10043" transform="translate(1192,0)"/>
<path d="M0 0 C4.21963785 1.79920981 8.04016766 4.1547688 11.9375 6.5625 C13.08159237 7.24891842 14.22696656 7.93320435 15.37353516 8.61547852 C17.74903998 10.03132636 20.11881905 11.45609786 22.48486328 12.88769531 C27.89978673 16.15433608 33.39041862 19.28977609 38.875 22.4375 C41.03655279 23.68473215 43.19801018 24.93212965 45.359375 26.1796875 C52.86166922 30.50141908 60.38359087 34.78854409 67.90472412 39.07736206 C76.93531654 44.2288036 85.92782511 49.4424247 94.89819336 54.69799805 C100.33569912 57.87851132 105.78808573 61.03064382 111.26171875 64.1484375 C111.88007599 64.50077454 112.49843323 64.85311157 113.13552856 65.21612549 C116.12937667 66.92107575 119.12500925 68.62273122 122.12304688 70.3203125 C125.42509648 72.19722619 128.71506324 74.09330739 132 76 C132.59186096 76.33954712 133.18372192 76.67909424 133.79351807 77.02893066 C135.5849213 78.06135016 137.36555294 79.11040743 139.14453125 80.1640625 C140.19616455 80.77975098 141.24779785 81.39543945 142.33129883 82.02978516 C145.29829798 84.22022365 146.40839307 85.69226314 148 89 C148.38590336 92.3030777 148.38590336 92.3030777 148.40113831 96.13537598 C148.40793498 96.84257483 148.41473164 97.54977368 148.42173427 98.27840281 C148.44068678 100.6421326 148.43827083 103.00534338 148.43579102 105.36914062 C148.4447696 107.06618414 148.45497808 108.76322152 148.46632385 110.46025085 C148.49281331 115.06554832 148.49985673 119.67067856 148.50177121 124.27604485 C148.50462114 128.1206452 148.51565866 131.96520667 148.5262875 135.80979204 C148.55070786 144.87858587 148.55804125 153.94729035 148.5559082 163.01611328 C148.55410456 172.37361187 148.58578807 181.73059234 148.63313919 191.08795977 C148.67234655 199.12206736 148.68846079 207.15600541 148.68654197 215.19020796 C148.68577664 219.98875112 148.69435095 224.78683346 148.72607613 229.58528137 C148.75508999 234.09663746 148.75537915 238.60709114 148.73352623 243.11847878 C148.73038519 244.7741051 148.73749876 246.42978734 148.7556076 248.08531761 C148.77873637 250.34615097 148.7648696 252.603859 148.74171448 254.86462402 C148.74416593 256.76161167 148.74416593 256.76161167 148.74666691 258.6969223 C147.69659886 263.34217483 145.9105829 264.37829823 142 267 C135.90989111 268.44629196 130.80498802 264.55161315 125.6875 261.625 C124.70620117 261.07626221 123.72490234 260.52752441 122.71386719 259.9621582 C115.63249458 255.98393023 108.61710153 251.89454959 101.63671875 247.7421875 C95.97521303 244.38062931 90.2679058 241.09880701 84.5625 237.8125 C83.45406738 237.17393066 82.34563477 236.53536133 81.20361328 235.87744141 C78.9312408 234.56853132 76.65877915 233.25977602 74.38623047 231.95117188 C71.10119378 230.05830863 67.81783564 228.16257293 64.53515625 226.265625 C53.92119471 220.13325768 43.29634626 214.02108998 32.6479187 207.94882202 C22.93722322 202.40957187 13.23569546 196.85452344 3.5625 191.25 C2.56782715 190.67757568 1.5731543 190.10515137 0.54833984 189.51538086 C-12.03647342 182.19824542 -12.03647342 182.19824542 -14 176 C-14.25168228 172.7409811 -14.25168228 172.7409811 -14.25396729 168.9717865 C-14.25708727 168.27613274 -14.26020725 167.58047897 -14.26342177 166.8637448 C-14.27138143 164.53920325 -14.26508619 162.21492422 -14.25878906 159.89038086 C-14.2614998 158.22127632 -14.26506121 156.55217298 -14.26940918 154.8830719 C-14.27852484 150.35428837 -14.2749925 145.82559599 -14.26865101 141.29681087 C-14.26358762 136.55810599 -14.26828333 131.81940892 -14.27142334 127.08070374 C-14.27506163 119.12401935 -14.27026709 111.1673721 -14.26074219 103.21069336 C-14.24985417 94.00900325 -14.25338629 84.80740175 -14.264395 75.60571378 C-14.2734673 67.7066697 -14.27475354 59.8076523 -14.26951766 51.90860468 C-14.26639813 47.19018861 -14.26598824 42.47181421 -14.27259064 37.7534008 C-14.27836276 33.31862801 -14.27436965 28.88396963 -14.26280212 24.44920921 C-14.26015499 22.82059164 -14.26092155 21.19196445 -14.26532745 19.56335068 C-14.27078216 17.34251322 -14.26394994 15.12204379 -14.25396729 12.90122986 C-14.25321323 11.65777267 -14.25245918 10.41431547 -14.25168228 9.13317776 C-14.00910483 6.11334545 -13.70692226 4.46748177 -12 2 C-7.95988639 -0.69340907 -4.65918409 -0.83621956 0 0 Z " fill="#F10044" transform="translate(759,120)"/>
<path d="M0 0 C3.17218332 2.50697512 6.13451647 5.14898861 9 8 C9.0825 6.783125 9.165 5.56625 9.25 4.3125 C10.03517368 1.09214997 10.64852531 0.21436691 13.5234375 -1.5390625 C16.64968511 -2.8226352 19.79281336 -3.93630996 23 -5 C24.46023119 -5.59956513 25.91890025 -6.20296987 27.375 -6.8125 C30.86158895 -7.95465845 33.3666147 -8.35447661 37 -8 C38.82148716 -6.17851284 38.12534829 -3.6515313 38.13374341 -1.22685009 C38.13151268 -0.39068234 38.12928196 0.44548541 38.12698364 1.30699158 C38.12854363 2.18848218 38.13010362 3.06997278 38.13171089 3.97817522 C38.13572485 6.95543746 38.1325297 9.93264942 38.12939453 12.90991211 C38.13074841 15.03486664 38.13252826 17.15982093 38.13470459 19.28477478 C38.13928084 25.07392724 38.13748851 30.86306197 38.1343255 36.65221477 C38.13180256 42.69714454 38.13413929 48.74207274 38.13571167 54.78700256 C38.1375337 64.94158197 38.13512633 75.09615412 38.13037109 85.25073242 C38.12492987 97.00624993 38.12668998 108.76175009 38.1321975 120.51726717 C38.13672943 130.5919713 38.13737874 140.6666702 38.13475883 150.74137503 C38.13319631 156.76651485 38.13300158 162.79164651 38.13629532 168.81678581 C38.13917514 174.48098758 38.13719627 180.1451669 38.13140106 185.80936623 C38.130074 187.89356321 38.13046667 189.97776207 38.13266373 192.06195831 C38.13537736 194.89667301 38.13199142 197.73131479 38.12698364 200.56602478 C38.12921436 201.39996181 38.13144509 202.23389884 38.13374341 203.09310669 C38.11414993 208.77170015 38.11414993 208.77170015 37 211 C32.87505849 211.05784708 28.75022056 211.09354407 24.625 211.125 C23.449375 211.14175781 22.27375 211.15851563 21.0625 211.17578125 C19.38027344 211.18544922 19.38027344 211.18544922 17.6640625 211.1953125 C16.62717285 211.20578613 15.5902832 211.21625977 14.52197266 211.22705078 C12 211 12 211 10 209 C9.78289368 206.56305588 9.68864431 204.23614693 9.68115234 201.79638672 C9.66608391 200.6840416 9.66608391 200.6840416 9.65071106 199.54922485 C9.61976604 197.09272045 9.6028128 194.63632557 9.5859375 192.1796875 C9.56723492 190.47859751 9.5476622 188.77751689 9.5272522 187.07644653 C9.47582868 182.59500641 9.43625784 178.11353617 9.39910889 173.63195801 C9.35913312 169.06055185 9.30801155 164.48927205 9.2578125 159.91796875 C9.16093231 150.94540113 9.0765664 141.97276234 9 133 C8.53710571 133.40765594 8.07421143 133.81531189 7.59729004 134.23532104 C6.98059448 134.77238678 6.36389893 135.30945251 5.72851562 135.86279297 C5.12124634 136.39419891 4.51397705 136.92560486 3.88830566 137.47311401 C-12.7372843 150.9165839 -34.56603188 152.51670025 -55 151 C-74.23136408 148.72186331 -90.96299208 138.22567154 -102.875 123.25 C-112.62019772 109.37426894 -118.31370823 92.9857212 -119 76 C-119.0515625 75.21367188 -119.103125 74.42734375 -119.15625 73.6171875 C-119.92283683 52.72769645 -113.47475358 31.55416131 -99.625 15.75 C-98.10118291 14.1494807 -96.5599836 12.56528966 -95 11 C-94.32453125 10.30132813 -93.6490625 9.60265625 -92.953125 8.8828125 C-69.51290605 -13.76431634 -27.32123499 -17.42566503 0 0 Z M-75.12890625 30.96484375 C-86.25099888 42.63565443 -89.83783129 56.28585238 -90 72 C-89.17222851 86.97653236 -84.46340536 101.17302867 -73.375 111.6875 C-60.57832273 122.22882419 -45.97974068 124.35249604 -30 123 C-18.72104495 120.9450351 -6.90902847 115.46677265 0 106 C10.16155266 89.2579956 13.01095298 71.13422537 8.4375 51.9375 C4.73774173 39.93934027 -2.72037297 29.5211911 -13.6484375 23.12890625 C-34.01245399 13.35282524 -58.28413806 15.41820448 -75.12890625 30.96484375 Z " fill="#F10043" transform="translate(289,776)"/>
<path d="M0 0 C14.11373209 10.83732999 22.8954391 26.79575149 25.72216797 44.28320312 C26.34615946 49.63395483 26.43268083 54.9887294 26.46875 60.37109375 C26.47890137 61.4799292 26.48905273 62.58876465 26.49951172 63.73120117 C26.48807129 64.76607666 26.47663086 65.80095215 26.46484375 66.8671875 C26.45509521 67.79587646 26.44534668 68.72456543 26.43530273 69.68139648 C26.23529663 70.79623413 26.23529663 70.79623413 26.03125 71.93359375 C22.79737932 74.08950754 21.95319522 74.18208667 18.22871399 74.17410278 C17.24013397 74.17685211 16.25155396 74.17960144 15.23301697 74.18243408 C14.14976639 74.17524353 13.06651581 74.16805298 11.95043945 74.16064453 C10.80883362 74.16093658 9.66722778 74.16122864 8.49102783 74.16152954 C4.70878561 74.16013359 0.92673916 74.14455971 -2.85546875 74.12890625 C-5.47434888 74.12517707 -8.0932304 74.12232965 -10.71211243 74.12033081 C-16.90629907 74.11411278 -23.10041517 74.09769763 -29.29457074 74.07763183 C-36.34649137 74.05528285 -43.39841535 74.04428193 -50.45036256 74.03424096 C-64.95652811 74.01333166 -79.46263807 73.97814942 -93.96875 73.93359375 C-93.35219798 76.32417096 -92.7303621 78.71316475 -92.10546875 81.1015625 C-91.93301636 81.77247925 -91.76056396 82.443396 -91.58288574 83.13464355 C-88.37221409 95.34712865 -81.97629059 105.34680325 -71.21875 112.30859375 C-56.62909924 120.14913889 -40.17515765 121.23066816 -24.15625 117.43359375 C-14.73732182 114.52191188 -5.18631021 110.25871976 2.625 104.1796875 C4.93682191 102.52327735 6.2691052 101.8699637 9.09765625 101.11328125 C13.84864452 102.44178662 15.48663776 105.99634814 17.96875 110.05859375 C18.47470703 110.81914063 18.98066406 111.5796875 19.50195312 112.36328125 C21.67799839 115.80695453 22.99733067 118.09558679 23.1640625 122.21484375 C19.0905223 131.99134023 3.22983365 137.95346013 -5.96875 141.93359375 C-27.23871717 150.41640906 -54.67557621 151.90993923 -76.09228516 143.05566406 C-83.99401586 139.57883167 -91.36499367 135.53678094 -97.96875 129.93359375 C-98.77054688 129.3303125 -99.57234375 128.72703125 -100.3984375 128.10546875 C-113.31394496 117.19206123 -120.58044738 99.32853011 -122.96875 82.93359375 C-124.4156461 57.80949035 -122.64512549 33.90757148 -105.80078125 13.9453125 C-105.19621094 13.28144531 -104.59164062 12.61757813 -103.96875 11.93359375 C-103.29199219 11.17691406 -102.61523438 10.42023437 -101.91796875 9.640625 C-75.90807913 -17.94002172 -30.63706008 -21.32500629 0 0 Z M-79.78125 27.6171875 C-86.21612481 34.43126029 -88.56784667 39.58110959 -91.96875 48.93359375 C-62.92875 48.93359375 -33.88875 48.93359375 -3.96875 48.93359375 C-5.19263175 39.14253976 -7.91978263 31.08822016 -14.96875 23.93359375 C-34.28171979 9.39128941 -62.38588644 10.69573609 -79.78125 27.6171875 Z " fill="#F10044" transform="translate(122.96875,779.06640625)"/>
<path d="M0 0 C1.57081313 1.36295008 3.11254206 2.76006951 4.625 4.1875 C5.45386719 4.96351563 6.28273438 5.73953125 7.13671875 6.5390625 C18.25994552 17.81559561 24.53433422 31.78936156 27.625 47.1875 C27.81449219 48.09628906 28.00398437 49.00507812 28.19921875 49.94140625 C31.16278899 72.53523077 27.4019952 95.12643545 14.609375 114.19140625 C12.71132914 116.63868979 10.73618501 118.92284968 8.625 121.1875 C7.99980469 121.89132812 7.37460937 122.59515625 6.73046875 123.3203125 C-6.09883178 137.06412528 -25.03699846 144.68712973 -43.62109375 145.57421875 C-66.74846079 146.18714379 -88.09038104 141.53372459 -105.375 125.1875 C-120.16655763 110.96771687 -128.84763588 91.21917554 -129.7109375 70.71484375 C-130.10178267 46.72247328 -124.84885617 26.95231944 -109.375 8.1875 C-108.59962891 7.24197266 -108.59962891 7.24197266 -107.80859375 6.27734375 C-99.68099087 -2.66505641 -87.68055986 -8.98392395 -76.375 -12.8125 C-75.47652344 -13.13089844 -74.57804688 -13.44929687 -73.65234375 -13.77734375 C-48.87644649 -21.01337296 -20.40890219 -15.52989901 0 0 Z M-86.28125 25.99609375 C-96.82666995 37.11966173 -100.90419897 51.67790447 -100.796875 66.68481445 C-100.28381936 81.79801592 -94.91179401 95.77249941 -83.79296875 106.18359375 C-72.25567879 115.7451927 -59.05144037 119.09661458 -44.1640625 117.9375 C-33.80526073 116.44625861 -25.31652696 113.01588406 -17.375 106.1875 C-16.77945313 105.70925781 -16.18390625 105.23101563 -15.5703125 104.73828125 C-5.85109658 96.16377299 -0.89723436 81.80391365 -0.0625 69.1875 C0.58533642 53.37341488 -3.19737887 39.31178394 -13.5 27.0625 C-23.40996401 16.49515861 -34.74341077 11.99301916 -49.0078125 11.1875 C-63.9502087 11.1875 -75.52450751 15.79041389 -86.28125 25.99609375 Z " fill="#F10044" transform="translate(873.375,781.8125)"/>
<path d="M0 0 C2.84255079 1.59936483 5.6313053 3.26888366 8.41552734 4.96777344 C10.56996942 6.25377751 12.72493529 7.53890438 14.88037109 8.82324219 C15.99009277 9.48888184 17.09981445 10.15452148 18.24316406 10.84033203 C23.62111661 14.04553235 29.04966664 17.16147688 34.47802734 20.28027344 C36.64085907 21.52754562 38.80361894 22.77494243 40.96630859 24.02246094 C44.94866127 26.3168937 48.93373571 28.60645585 52.92230225 30.89006042 C54.69487011 31.90528178 56.46668966 32.92179683 58.23828125 33.9387207 C60.45390871 35.21004704 62.67093808 36.47893465 64.88964844 37.74487305 C80.43112673 46.67087282 80.43112673 46.67087282 84.60302734 50.84277344 C85.10302734 53.15527344 85.10302734 53.15527344 84.60302734 55.84277344 C79.67641314 60.7090969 73.67851168 63.83659234 67.67175293 67.19952393 C65.8114362 68.24105906 63.95529151 69.2897018 62.10009766 70.34033203 C60.17259418 71.43178433 58.24485299 72.52279019 56.31585693 73.61160278 C49.97276967 77.1920036 43.65988443 80.82396085 37.35302734 84.46777344 C35.77231445 85.37970459 35.77231445 85.37970459 34.15966797 86.31005859 C28.71519078 89.45425253 23.27941637 92.61277111 17.85302734 95.78808594 C16.76151367 96.42665527 15.67 97.06522461 14.54541016 97.72314453 C12.47594834 98.93513127 10.40752263 100.14888958 8.34033203 101.36474609 C6.53204138 102.4244433 4.71953623 103.47699935 2.90185547 104.52050781 C1.04394831 105.58915959 -0.79659862 106.6879582 -2.63134766 107.79589844 C-6.4959897 109.25878554 -8.39703978 108.96916769 -12.39697266 107.84277344 C-16.13521118 106.01689071 -19.65992186 103.88365514 -23.20947266 101.71777344 C-25.36391473 100.43176937 -27.5188806 99.14664249 -29.67431641 97.86230469 C-30.78403809 97.19666504 -31.89375977 96.53102539 -33.03710938 95.84521484 C-38.41505839 92.64001663 -43.84351222 89.52389083 -49.27197266 86.40527344 C-51.43614846 85.1580742 -53.6002101 83.91067683 -55.76416016 82.66308594 C-59.14701172 80.7143459 -62.53012112 78.76605475 -65.91357422 76.81835938 C-68.27043556 75.46162086 -70.6270419 74.10444123 -72.98339844 72.74682617 C-75.18704135 71.47731225 -77.39111221 70.20854076 -79.59570312 68.94067383 C-81.58575161 67.79406324 -83.57350091 66.64345015 -85.55859375 65.48828125 C-87.47023177 64.38003764 -89.39008553 63.28585978 -91.31738281 62.20507812 C-92.22278809 61.68719727 -93.12819336 61.16931641 -94.06103516 60.63574219 C-94.86492676 60.18352295 -95.66881836 59.73130371 -96.49707031 59.26538086 C-98.39697266 57.84277344 -98.39697266 57.84277344 -99.77197266 54.21777344 C-99.31796513 50.13170574 -98.43188672 49.47229005 -95.39697266 46.84277344 C-93.21240234 45.41748047 -93.21240234 45.41748047 -90.81884766 44.10058594 C-89.91803467 43.59930176 -89.01722168 43.09801758 -88.08911133 42.58154297 C-87.11820557 42.04899902 -86.1472998 41.51645508 -85.14697266 40.96777344 C-83.05370184 39.80258388 -80.96127938 38.63586919 -78.86962891 37.46777344 C-77.79471191 36.86835938 -76.71979492 36.26894531 -75.61230469 35.65136719 C-70.5691064 32.81461602 -65.57581347 29.89453304 -60.58447266 26.96777344 C-50.8479486 21.26525044 -41.08379976 15.61270396 -31.30004883 9.99169922 C-25.63839833 6.73379532 -20.01543695 3.42888755 -14.45117188 0.00683594 C-9.34562048 -2.88635031 -5.12317827 -2.47340243 0 0 Z " fill="#F10044" transform="translate(787.39697265625,392.1572265625)"/>
<path d="M0 0 C13.23146576 10.95508456 20.1636279 26.2965643 22.41796875 43.10546875 C22.56795774 46.41247623 22.5750784 49.71633627 22.57910156 53.02636719 C22.58406647 54.00914139 22.58903137 54.99191559 22.59414673 56.00447083 C22.60870222 59.241269 22.61555628 62.4780183 22.62109375 65.71484375 C22.6268469 67.96592205 22.63260461 70.21700034 22.6383667 72.46807861 C22.6488552 77.17875395 22.65471318 81.8894123 22.65820312 86.60009766 C22.66370942 92.64875763 22.68779179 98.69719494 22.71617508 104.74578476 C22.73474691 109.39018424 22.74000395 114.03452922 22.741539 118.67896271 C22.74457411 120.91019164 22.75263128 123.14141942 22.76572418 125.372612 C22.78268433 128.48263394 22.78093008 131.59209968 22.77441406 134.70214844 C22.78823624 136.09386009 22.78823624 136.09386009 22.80233765 137.51368713 C22.79398392 138.77954903 22.79398392 138.77954903 22.78546143 140.07098389 C22.78692799 140.80615612 22.78839455 141.54132835 22.78990555 142.29877853 C22.41796875 144.10546875 22.41796875 144.10546875 19.41796875 146.10546875 C15.95325937 146.53707079 12.46918284 146.42969946 8.98046875 146.41796875 C7.54864258 146.44213867 7.54864258 146.44213867 6.08789062 146.46679688 C5.16685547 146.46744141 4.24582031 146.46808594 3.296875 146.46875 C2.03725952 146.47322144 2.03725952 146.47322144 0.75219727 146.4777832 C-2.32427604 145.98707911 -3.43450305 145.39846334 -5.58203125 143.10546875 C-5.97686486 140.12442611 -6.11537752 137.50867324 -6.08032227 134.52587891 C-6.08584106 133.64899414 -6.09135986 132.77210938 -6.0970459 131.86865234 C-6.10637952 129.96165837 -6.10645985 128.05460208 -6.09845161 126.14760208 C-6.08583124 123.1190312 -6.09710705 120.09137334 -6.11448669 117.06283569 C-6.1412498 111.71167672 -6.14678105 106.36074014 -6.14538574 101.00952148 C-6.14316315 92.48048631 -6.15757422 83.95173001 -6.2009716 75.42280197 C-6.21072931 72.45779251 -6.20212864 69.4932284 -6.192276 66.52822876 C-6.20705254 52.8136253 -6.52511608 39.28417749 -15.58203125 28.10546875 C-25.47882334 18.56921553 -35.85137765 16.5912286 -49.2109375 16.83203125 C-59.18909599 17.26858919 -67.53500194 21.05843944 -74.58203125 28.10546875 C-84.81446062 39.80294394 -85.1542002 53.90119602 -85.06788635 68.61148453 C-85.05044833 71.67170639 -85.05822294 74.73099863 -85.07214355 77.79122925 C-85.0973101 84.27104157 -85.09199082 90.75062756 -85.08203125 97.23046875 C-85.07049817 104.77852094 -85.0715493 112.32611702 -85.10609436 119.87411118 C-85.11319597 122.8895702 -85.096514 125.90430641 -85.07897949 128.91970825 C-85.08468307 130.75783686 -85.09149823 132.59596247 -85.09960938 134.43408203 C-85.08829483 135.2724913 -85.07698029 136.11090057 -85.06532288 136.97471619 C-85.1250675 142.61590359 -85.1250675 142.61590359 -87.46629333 145.12416077 C-89.96201645 146.28171105 -91.71292417 146.47850501 -94.4609375 146.46875 C-95.38197266 146.46810547 -96.30300781 146.46746094 -97.25195312 146.46679688 C-98.20650391 146.45068359 -99.16105469 146.43457031 -100.14453125 146.41796875 C-101.5821582 146.42280273 -101.5821582 146.42280273 -103.04882812 146.42773438 C-110.18110128 146.37275539 -110.18110128 146.37275539 -113.58203125 144.10546875 C-114.62552698 140.97498155 -114.71285272 138.78651188 -114.72247314 135.50137329 C-114.72818329 134.33490768 -114.73389343 133.16844208 -114.73977661 131.96662903 C-114.74089447 130.68551743 -114.74201233 129.40440582 -114.74316406 128.08447266 C-114.74779298 126.72270066 -114.75281774 125.36092996 -114.75820923 123.99916077 C-114.77132723 120.29870798 -114.77777689 116.59827333 -114.78221989 112.89780092 C-114.78515129 110.58594169 -114.78925621 108.27408742 -114.79372406 105.96223068 C-114.80739678 98.72900021 -114.81706481 91.49578106 -114.82092595 84.26253855 C-114.82540774 75.91255256 -114.84296208 67.56273018 -114.87192655 59.21279395 C-114.8935389 52.75835288 -114.90362997 46.30395786 -114.90496707 39.84948099 C-114.90601533 35.99447552 -114.91192755 32.1396239 -114.92978668 28.28465652 C-114.94625998 24.65833172 -114.94842664 21.03227654 -114.93964767 17.40592766 C-114.93850967 15.44238705 -114.95223238 13.47885542 -114.96640015 11.5153656 C-114.96083099 10.34326035 -114.95526184 9.17115509 -114.94952393 7.96353149 C-114.95099049 6.94700312 -114.95245705 5.93047474 -114.95396805 4.88314247 C-114.51827069 1.62929639 -113.49777153 -0.25127551 -111.58203125 -2.89453125 C-109.5925293 -4.10473633 -109.5925293 -4.10473633 -107.34375 -4.9140625 C-106.52326172 -5.21376953 -105.70277344 -5.51347656 -104.85742188 -5.82226562 C-103.57641602 -6.26022461 -103.57641602 -6.26022461 -102.26953125 -6.70703125 C-101.42712891 -7.01833984 -100.58472656 -7.32964844 -99.71679688 -7.65039062 C-95.20372765 -9.25590001 -91.44111589 -10.29879441 -86.58203125 -9.89453125 C-85.06096491 -6.85239858 -85.20773787 -3.61405553 -85.01953125 -0.26953125 C-84.97634766 0.436875 -84.93316406 1.14328125 -84.88867188 1.87109375 C-84.78258374 3.61565412 -84.68180236 5.36053572 -84.58203125 7.10546875 C-84.04835938 6.52539062 -83.5146875 5.9453125 -82.96484375 5.34765625 C-61.42928034 -17.23115244 -24.86396191 -18.24360291 0 0 Z " fill="#F10044" transform="translate(698.58203125,777.89453125)"/>
<path d="M0 0 C1.68126138 3.36252276 1.15329961 7.16617622 1.15771484 10.86499023 C1.16533592 12.24343864 1.16533592 12.24343864 1.17311096 13.6497345 C1.18383101 15.6511635 1.19244474 17.65260462 1.19923019 19.65405083 C1.21101235 22.82876212 1.23046724 26.00333696 1.25234985 29.17799377 C1.31396232 38.20675053 1.36786625 47.23549614 1.40136719 56.2644043 C1.422402 61.78464923 1.4577846 67.30464999 1.50212479 72.82475471 C1.51622522 74.92290417 1.52499367 77.02109689 1.52817917 79.11929131 C1.5540204 94.52159956 1.76667884 108.7038505 12.62890625 120.81640625 C21.77125506 129.27997278 32.50413297 130.47126545 44.4375 130.27734375 C54.40289543 129.86620983 63.75828998 125.32361174 70.75 118.22265625 C78.2090657 109.10394843 80.13456691 98.03767318 80.17358398 86.5637207 C80.1836145 85.32605453 80.1836145 85.32605453 80.19384766 84.06338501 C80.20784212 82.28082533 80.21975373 80.49824833 80.22979546 78.715662 C80.24626961 75.89567806 80.26950605 73.07582395 80.29469299 70.25590515 C80.36532 62.2415517 80.42574454 54.22714822 80.47680664 46.21264648 C80.50855383 41.30382787 80.54980625 36.39516439 80.59700203 31.48647118 C80.61303333 29.61615971 80.62534967 27.74581263 80.63390923 25.87545204 C80.64603098 23.26617215 80.67016353 20.65725947 80.69702148 18.0480957 C80.69761063 17.27349503 80.69819977 16.49889435 80.69880676 15.70082092 C80.75032832 11.93328718 80.85748682 10.21376977 83 7 C84.87597656 6.0168457 84.87597656 6.0168457 87.140625 5.17578125 C87.96433594 4.86962891 88.78804688 4.56347656 89.63671875 4.24804688 C90.49910156 3.93931641 91.36148438 3.63058594 92.25 3.3125 C93.09691406 2.99216797 93.94382812 2.67183594 94.81640625 2.34179688 C99.3200393 0.69933661 103.13115297 -0.53495294 108 0 C109 1 109 1 109.12304783 3.51250553 C109.12212604 4.63985835 109.12120424 5.76721117 109.12025452 6.9287262 C109.12231651 8.86183655 109.12231651 8.86183655 109.12442017 10.83399963 C109.12088055 12.27548241 109.11724573 13.71696495 109.11352539 15.15844727 C109.11324353 16.66596474 109.11340123 18.17348236 109.1139679 19.68099976 C109.11425591 23.78619344 109.10835861 27.89135815 109.10139394 31.99654508 C109.09516099 36.2820326 109.09455665 40.56752072 109.09336853 44.85301208 C109.09025504 52.97386652 109.08204141 61.09470756 109.07201904 69.21555609 C109.06085845 78.45844874 109.05534759 87.70134202 109.05032361 96.94423974 C109.03985881 115.9628341 109.02225903 134.98141597 109 154 C105.90298448 155.6399163 103.86364084 156.24861614 100.33984375 156.23046875 C99.46392578 156.22853516 98.58800781 156.22660156 97.68554688 156.22460938 C96.77869141 156.21236328 95.87183594 156.20011719 94.9375 156.1875 C93.57141602 156.1865332 93.57141602 156.1865332 92.17773438 156.18554688 C85.42222744 156.14074248 85.42222744 156.14074248 82 155 C80.58365167 152.16730334 80.6536995 149.52533562 80.4375 146.375 C80.31181641 144.59222656 80.31181641 144.59222656 80.18359375 142.7734375 C80.12300781 141.85820313 80.06242187 140.94296875 80 140 C79.47792969 140.58007812 78.95585937 141.16015625 78.41796875 141.7578125 C72.84416972 147.67326296 67.43099009 151.70956159 60 155 C59.09378906 155.41378906 58.18757813 155.82757812 57.25390625 156.25390625 C43.68096754 161.42712459 24.4687217 161.34667437 11 156 C10.02546875 155.62101563 9.0509375 155.24203125 8.046875 154.8515625 C-6.85815323 148.23984485 -16.78839536 136.34820808 -22.8125 121.375 C-28.10815475 106.66870631 -28.18975898 92.06009267 -28.2734375 76.60546875 C-28.27876118 75.68311243 -28.28408485 74.76075611 -28.28956985 73.8104496 C-28.31613542 68.94175681 -28.33557489 64.07308837 -28.35009766 59.2043457 C-28.36350175 55.18393535 -28.39149594 51.16402475 -28.43212891 47.14379883 C-28.48137114 42.26928345 -28.50620498 37.39522503 -28.51332474 32.52047157 C-28.52003754 30.66848041 -28.53526042 28.8164995 -28.55921555 26.96465111 C-28.59078661 24.37977727 -28.59091842 21.79668539 -28.58349609 19.21166992 C-28.59990143 18.45054398 -28.61630676 17.68941803 -28.63320923 16.90522766 C-28.58614559 12.90168421 -28.16114033 11.19684872 -25.59059143 8.05667114 C-23.34121017 6.27088684 -21.68419223 5.13086896 -19.00390625 4.19921875 C-18.28009766 3.94462891 -17.55628906 3.69003906 -16.81054688 3.42773438 C-15.69776367 3.06131836 -15.69776367 3.06131836 -14.5625 2.6875 C-13.82451172 2.42388672 -13.08652344 2.16027344 -12.32617188 1.88867188 C-8.08448767 0.43707328 -4.54197499 -0.30951652 0 0 Z " fill="#F10043" transform="translate(383,768)"/>
<path d="M0 0 C3.89157976 2.31641652 4.94336501 5.4733961 6.625 9.5625 C6.92664063 10.26503906 7.22828125 10.96757813 7.5390625 11.69140625 C9.07712284 15.47905952 10.0077972 18.41394524 9.625 22.5625 C8.29248047 24.10400391 8.29248047 24.10400391 6.3671875 25.4140625 C5.63209961 25.91969727 4.89701172 26.42533203 4.13964844 26.94628906 C-0.62077558 30.00590139 -5.41238761 33.00117079 -10.25 35.9375 C-11.97079427 36.98928117 -13.69158476 38.04106858 -15.41215515 39.09321594 C-17.19702926 40.18399199 -18.98293874 41.27305602 -20.76904297 42.36181641 C-26.62636034 45.93407645 -32.4689249 49.53032363 -38.3125 53.125 C-39.35841309 53.76679199 -40.40432617 54.40858398 -41.48193359 55.06982422 C-47.44104947 58.73204823 -53.34725266 62.45848106 -59.19750977 66.29272461 C-61.375 67.5625 -61.375 67.5625 -63.375 67.5625 C-63.36611755 68.64578079 -63.35723511 69.72906158 -63.3480835 70.84516907 C-63.26707866 81.04246416 -63.20707359 91.23969418 -63.16775131 101.43723774 C-63.14685581 106.68021848 -63.11850228 111.92293997 -63.07324219 117.16577148 C-63.02985455 122.22321821 -63.00587769 127.28041523 -62.99549103 132.33803368 C-62.98808691 134.26981731 -62.97362876 136.20158691 -62.95207977 138.13326454 C-62.92313974 140.83434456 -62.91904002 143.53438618 -62.92089844 146.2355957 C-62.90651733 147.03832413 -62.89213623 147.84105255 -62.87731934 148.66810608 C-62.91772342 154.07736895 -62.91772342 154.07736895 -65.25749207 156.55966187 C-67.75724395 157.74352828 -69.49185176 157.93558611 -72.25390625 157.92578125 C-73.17494141 157.92513672 -74.09597656 157.92449219 -75.04492188 157.92382812 C-75.99947266 157.90771484 -76.95402344 157.89160156 -77.9375 157.875 C-79.37512695 157.87983398 -79.37512695 157.87983398 -80.84179688 157.88476562 C-87.97407003 157.82978664 -87.97407003 157.82978664 -91.375 155.5625 C-91.75531673 153.06026554 -91.75531673 153.06026554 -91.76268005 149.8374176 C-91.77258469 148.61895142 -91.78248932 147.40048523 -91.79269409 146.14509583 C-91.78845558 144.78756614 -91.78389767 143.43003742 -91.77905273 142.07250977 C-91.78475247 140.64852358 -91.79171518 139.22454198 -91.79985046 137.80056763 C-91.8178417 133.92657574 -91.81660232 130.0528096 -91.81090808 126.17878842 C-91.80782461 122.94802741 -91.8138993 119.7173103 -91.81994683 116.48655552 C-91.8340102 108.86624425 -91.83241593 101.24604504 -91.82104492 93.62573242 C-91.80956312 85.75717007 -91.8236361 77.88894853 -91.8504414 70.0204311 C-91.87257469 63.27133069 -91.87924112 56.52233745 -91.87336498 49.77320331 C-91.86998832 45.7393754 -91.87245706 41.70576596 -91.88961601 37.67196846 C-91.90504544 33.87895207 -91.90117486 30.08644169 -91.88231087 26.29344559 C-91.8786137 24.89984295 -91.88176624 23.50620316 -91.89219666 22.11263466 C-91.90532906 20.21331637 -91.89149916 18.31386815 -91.87620544 16.41456604 C-91.87599616 15.35064919 -91.87578688 14.28673235 -91.87557125 13.1905756 C-91.375 10.5625 -91.375 10.5625 -89.46363926 8.75245571 C-86.11470826 6.84447684 -82.63128958 5.63846416 -79 4.375 C-78.2575 4.10236328 -77.515 3.82972656 -76.75 3.54882812 C-72.50440066 2.05236687 -68.94304532 1.13115207 -64.375 1.5625 C-63.375 2.5625 -63.375 2.5625 -63.26147461 5.70532227 C-63.26163367 7.09652697 -63.26732494 8.48773761 -63.27734375 9.87890625 C-63.2787587 10.60996078 -63.28017365 11.34101532 -63.28163147 12.09422302 C-63.28724592 14.43785632 -63.29980078 16.78139539 -63.3125 19.125 C-63.31751314 20.71028508 -63.32207637 22.29557166 -63.32617188 23.88085938 C-63.33722003 27.7747761 -63.35449428 31.66862205 -63.375 35.5625 C-60.13674967 33.64450262 -56.89862857 31.72628723 -53.66061401 29.80789185 C-52.47111709 29.10317118 -51.28160296 28.39847957 -50.09207153 27.69381714 C-42.56733742 23.23607945 -35.04537486 18.77372161 -27.52734375 14.3046875 C-26.06119952 13.43334691 -24.5950537 12.562009 -23.12890625 11.69067383 C-20.97370667 10.40979512 -18.81865892 9.1286643 -16.6640625 7.84677124 C-14.65009499 6.64855065 -12.63563902 5.45115513 -10.62109375 4.25390625 C-10.01708237 3.89420746 -9.41307098 3.53450867 -8.79075623 3.16390991 C-2.64391723 -0.48703738 -2.64391723 -0.48703738 0 0 Z " fill="#F10044" transform="translate(1016.375,766.4375)"/>
<path d="M0 0 C1.88267079 1.88267079 1.20663703 5.1172385 1.25634766 7.62768555 C1.27095032 8.3204509 1.28555298 9.01321625 1.30059814 9.72697449 C1.4267464 16.12862292 1.4953755 22.53152928 1.54844093 28.93416119 C1.58419647 33.23722131 1.63746363 37.53841075 1.73388672 41.84057617 C1.82679428 45.99813284 1.8753742 50.15403463 1.89283371 54.31257057 C1.90691764 55.89595706 1.936536 57.47928607 1.98213577 59.06207848 C2.32066095 71.41867683 2.32066095 71.41867683 -0.84793091 75.21266174 C-3.16973189 76.79186296 -5.41476989 77.91539543 -8 79 C-9.06492676 79.64138916 -10.12985352 80.28277832 -11.22705078 80.94360352 C-12.20657715 81.49975342 -13.18610352 82.05590332 -14.1953125 82.62890625 C-15.31284912 83.26586426 -16.43038574 83.90282227 -17.58178711 84.55908203 C-18.76259674 85.22735 -19.94367337 85.89514638 -21.125 86.5625 C-23.60829344 87.96705847 -26.09130092 89.37212143 -28.57421875 90.77734375 C-29.19561234 91.12845215 -29.81700592 91.47956055 -30.45722961 91.84130859 C-34.59017546 94.18230192 -38.68601814 96.5776807 -42.76953125 99.00390625 C-43.81286621 99.61613037 -44.85620117 100.22835449 -45.93115234 100.85913086 C-47.89688824 102.01376524 -49.85468728 103.18204789 -51.80322266 104.36547852 C-53.1207251 105.13202759 -53.1207251 105.13202759 -54.46484375 105.9140625 C-55.224021 106.3673291 -55.98319824 106.8205957 -56.76538086 107.28759766 C-59.78003181 108.24867615 -61.18038292 107.24777174 -64 106 C-64.20878705 96.84672099 -64.36856836 87.69426456 -64.46630955 78.53912163 C-64.51322872 74.28759379 -64.57682809 70.03769785 -64.67895508 65.78710938 C-64.776951 61.68263941 -64.83059732 57.57973563 -64.85389519 53.47418594 C-64.87049018 51.91030336 -64.90290095 50.34650403 -64.95157051 48.78329086 C-65.31681329 36.56292614 -65.31681329 36.56292614 -62.13768005 32.78961182 C-59.81972448 31.21515372 -57.57877357 30.08464482 -55 29 C-54.000896 28.39414062 -53.00179199 27.78828125 -51.97241211 27.1640625 C-51.08303955 26.65617188 -50.19366699 26.14828125 -49.27734375 25.625 C-48.25535889 25.03855713 -47.23337402 24.45211426 -46.18041992 23.84790039 C-45.11025635 23.23809326 -44.04009277 22.62828613 -42.9375 22 C-40.64008855 20.68712278 -38.34305083 19.37362738 -36.046875 18.05859375 C-35.46584518 17.72613144 -34.88481537 17.39366913 -34.28617859 17.0511322 C-30.21147848 14.71312367 -26.17098465 12.32384746 -22.140625 9.91015625 C-21.05531494 9.26369141 -19.97000488 8.61722656 -18.85180664 7.95117188 C-16.78071623 6.71500527 -14.71456471 5.47051684 -12.65405273 4.21679688 C-11.72020752 3.66185547 -10.7863623 3.10691406 -9.82421875 2.53515625 C-9.01041748 2.044104 -8.19661621 1.55305176 -7.3581543 1.04711914 C-4.69590614 -0.1350304 -2.88254126 -0.28168663 0 0 Z " fill="#F10044" transform="translate(906,500)"/>
<path d="M0 0 C2.32730386 3.49095579 2.25475058 4.86536074 2.26742554 8.99046326 C2.27595551 10.24251556 2.28448547 11.49456787 2.29327393 12.78456116 C2.29257488 14.17465223 2.29165181 15.5647432 2.29052734 16.95483398 C2.29651074 18.41675155 2.30331585 19.87866595 2.31088257 21.34057617 C2.32856792 25.31369774 2.33323898 29.2867332 2.33451414 33.25989032 C2.33641211 36.57510098 2.34376837 39.89029153 2.35085833 43.20549446 C2.36714912 51.02575991 2.37202661 58.8459793 2.37060547 66.66625977 C2.36940348 74.7375954 2.39051501 82.80866386 2.4220928 90.87993187 C2.44822816 97.80654964 2.45897394 104.73307999 2.45769465 111.65974671 C2.45718425 115.79812098 2.4629101 119.93625782 2.48405075 124.07458305 C2.50338753 127.96608309 2.50358933 131.85711809 2.48901749 135.74863434 C2.48692265 137.17730194 2.49167041 138.6059983 2.5037384 140.03461647 C2.51913869 141.98387029 2.50750744 143.933282 2.49447632 145.8825531 C2.49556585 146.97374671 2.49665539 148.06494032 2.49777794 149.1892004 C1.88089273 152.67256231 0.75547982 153.85059268 -2 156 C-4.31835938 156.50170898 -4.31835938 156.50170898 -6.84375 156.49609375 C-7.76027344 156.49673828 -8.67679688 156.49738281 -9.62109375 156.49804688 C-10.57113281 156.47806641 -11.52117188 156.45808594 -12.5 156.4375 C-13.45003906 156.44458984 -14.40007813 156.45167969 -15.37890625 156.45898438 C-23.52123225 156.3845468 -23.52123225 156.3845468 -27 153 C-27.50057125 150.40595245 -27.50057125 150.40595245 -27.50120544 147.23059082 C-27.51103958 146.02757828 -27.52087372 144.82456573 -27.53100586 143.58509827 C-27.52163362 142.25008873 -27.51185429 140.91508201 -27.50170898 139.58007812 C-27.50549154 138.17564858 -27.51099107 136.77122277 -27.51808167 135.36680603 C-27.53206211 131.5506301 -27.52084873 127.73490371 -27.50437045 123.91875267 C-27.49053682 119.92829393 -27.4969781 115.93786174 -27.50050354 111.9473877 C-27.50320701 105.245613 -27.48971842 98.54401727 -27.46655273 91.84228516 C-27.43994204 84.0901884 -27.43819533 76.33839091 -27.4499411 68.58626413 C-27.46071417 61.13408479 -27.45453555 53.68201387 -27.44038582 46.22984314 C-27.43462189 43.05603986 -27.43471187 39.88231582 -27.43945122 36.70851135 C-27.44421782 32.97216039 -27.43413288 29.2361378 -27.41249657 25.49984932 C-27.40692413 24.12721934 -27.4064676 22.75455783 -27.41144943 21.38192558 C-27.41738876 19.51107943 -27.40308264 17.64020135 -27.38768005 15.76940918 C-27.38525016 14.72153984 -27.38282026 13.6736705 -27.38031673 12.59404755 C-26.94577913 9.6301727 -26.35644853 8.77483955 -24 7 C-21.1635715 5.5305162 -18.16915177 4.45415563 -15.1875 3.3125 C-13.99543945 2.83200195 -13.99543945 2.83200195 -12.77929688 2.34179688 C-8.45615429 0.66474652 -4.70739524 -0.72809635 0 0 Z " fill="#F00044" transform="translate(551,768)"/>
<path d="M0 0 C3.06103516 1.35766602 3.06103516 1.35766602 6.2890625 3.25390625 C7.16587173 3.76170876 7.16587173 3.76170876 8.06039429 4.2797699 C9.92258739 5.36200832 11.77370856 6.46173866 13.625 7.5625 C14.84435761 8.27527791 16.06440524 8.98687678 17.28515625 9.69726562 C19.69224904 11.09987766 22.09178399 12.51432775 24.48706055 13.93701172 C26.81324645 15.31410861 29.15616155 16.65104498 31.52270508 17.95751953 C32.60704834 18.56321777 33.6913916 19.16891602 34.80859375 19.79296875 C35.77595459 20.32301514 36.74331543 20.85306152 37.73999023 21.39916992 C40.15837035 23.11217829 40.87640082 23.87879987 41.4375 26.75 C40.94821858 30.38466197 40.69904902 30.76835169 38 33 C36.1754622 34.15537087 34.31779563 35.25902119 32.44140625 36.328125 C31.33216797 36.96363281 30.22292969 37.59914063 29.08007812 38.25390625 C27.90764846 38.91944065 26.73512207 39.58480466 25.5625 40.25 C23.29280887 41.54659516 21.02327687 42.84346894 18.75390625 44.140625 C17.0680542 45.09098633 17.0680542 45.09098633 15.34814453 46.06054688 C13.12147149 47.3503741 10.92327091 48.69068904 8.75732422 50.08007812 C0.12457839 55.54834361 0.12457839 55.54834361 -4.265625 55.20703125 C-8.52873168 53.82910242 -11.98169979 52.0752615 -15.75 49.6875 C-17.22523085 48.78510791 -18.70049269 47.88276648 -20.17578125 46.98046875 C-20.95002441 46.50013184 -21.72426758 46.01979492 -22.52197266 45.52490234 C-25.15920668 43.90202907 -27.81640242 42.31669259 -30.48046875 40.73828125 C-32.29950334 39.6588949 -34.11851419 38.57946855 -35.9375 37.5 C-36.80793945 36.98397217 -37.67837891 36.46794434 -38.57519531 35.9362793 C-39.78900879 35.20985229 -39.78900879 35.20985229 -41.02734375 34.46875 C-42.10616821 33.82583008 -42.10616821 33.82583008 -43.20678711 33.16992188 C-45 32 -45 32 -47 30 C-47.4375 27.625 -47.4375 27.625 -47 25 C-43.66581277 21.99806504 -40.06405488 19.75385827 -36.17578125 17.5390625 C-35.06396484 16.90226562 -33.95214844 16.26546875 -32.80664062 15.609375 C-31.64204301 14.94771259 -30.4773289 14.28625516 -29.3125 13.625 C-27.03728414 12.32635491 -24.76253786 11.02688674 -22.48828125 9.7265625 C-21.3895166 9.10297852 -20.29075195 8.47939453 -19.15869141 7.83691406 C-15.46427832 5.68845495 -11.87042987 3.40087989 -8.30541992 1.04443359 C-5.27156264 -0.33000689 -3.30859741 -0.38424936 0 0 Z " fill="#F10044" transform="translate(1049,418)"/>
<path d="M0 0 C5.05425923 -0.72837069 8.04553534 0.75943724 12.359375 3.2890625 C12.94865784 3.62996918 13.53794067 3.97087585 14.14508057 4.32211304 C16.0206935 5.41108165 17.88520635 6.51762772 19.75 7.625 C20.98629501 8.34622611 22.22326948 9.06628885 23.4609375 9.78515625 C25.8661113 11.18557337 28.26508015 12.59568999 30.65820312 14.01660156 C32.77205249 15.27119773 34.8900474 16.51885783 37.01367188 17.75683594 C38.34495117 18.53849121 38.34495117 18.53849121 39.703125 19.3359375 C40.46786133 19.78243652 41.23259766 20.22893555 42.02050781 20.68896484 C44.0397588 22.02633261 45.47504368 23.11635846 47 25 C47.38095093 27.28346252 47.38095093 27.28346252 47.38818359 29.99047852 C47.39764008 31.00485489 47.40709656 32.01923126 47.4168396 33.06434631 C47.41076691 34.15815109 47.40469421 35.25195587 47.3984375 36.37890625 C47.40130768 37.50191635 47.40417786 38.62492645 47.40713501 39.78196716 C47.40917731 42.15665186 47.40363596 44.53135331 47.39111328 46.90600586 C47.37504781 50.55164974 47.39096495 54.19618738 47.41015625 57.84179688 C47.40817414 60.14583579 47.40433114 62.44987402 47.3984375 64.75390625 C47.40754654 66.39764977 47.40754654 66.39764977 47.4168396 68.07460022 C47.40738312 69.08582443 47.39792664 70.09704865 47.38818359 71.13891602 C47.38579681 72.0314357 47.38341003 72.92395538 47.38095093 73.84352112 C47.25523712 74.55515915 47.12952332 75.26679718 47 76 C44 78 44 78 41.14648438 77.80493164 C37.8824254 76.96992214 35.53937505 75.8490264 32.65625 74.12109375 C31.66318848 73.53303955 30.67012695 72.94498535 29.64697266 72.33911133 C28.60847168 71.71157959 27.5699707 71.08404785 26.5 70.4375 C24.35195704 69.15819148 22.20352103 67.87954267 20.0546875 66.6015625 C19.01795898 65.9818457 17.98123047 65.36212891 16.91308594 64.72363281 C12.13652417 61.89740703 7.27946815 59.22024348 2.4140625 56.55078125 C0 55 0 55 -2 52 C-2.25396729 49.79919434 -2.25396729 49.79919434 -2.25878906 47.20898438 C-2.26509338 46.2378772 -2.27139771 45.26677002 -2.27789307 44.26623535 C-2.2738446 43.21931519 -2.26979614 42.17239502 -2.265625 41.09375 C-2.26753845 40.01750366 -2.2694519 38.94125732 -2.27142334 37.83239746 C-2.27278483 35.55606859 -2.26909092 33.27973194 -2.26074219 31.00341797 C-2.25004238 27.51382043 -2.26063892 24.02473773 -2.2734375 20.53515625 C-2.2721159 18.32551969 -2.26955349 16.11588346 -2.265625 13.90625 C-2.26967346 12.85932983 -2.27372192 11.81240967 -2.27789307 10.73376465 C-2.26843658 9.27710388 -2.26843658 9.27710388 -2.25878906 7.79101562 C-2.25719788 6.93624634 -2.25560669 6.08147705 -2.25396729 5.20080566 C-2 3 -2 3 0 0 Z " fill="#F10043" transform="translate(969,501)"/>
<path d="M0 0 C3.16526414 4.74789621 2.32821514 9.79298137 2.3125 15.375 C2.32861328 16.51195312 2.34472656 17.64890625 2.36132812 18.8203125 C2.36197266 19.91859375 2.36261719 21.016875 2.36328125 22.1484375 C2.36626221 23.15052246 2.36924316 24.15260742 2.37231445 25.18505859 C1.93029391 28.52702375 1.06397772 30.34282957 -1 33 C-3.08129883 34.21020508 -3.08129883 34.21020508 -5.45703125 35.01953125 C-6.75543945 35.4690918 -6.75543945 35.4690918 -8.08007812 35.92773438 C-8.98177734 36.21970703 -9.88347656 36.51167969 -10.8125 36.8125 C-12.14764648 37.27946289 -12.14764648 37.27946289 -13.50976562 37.75585938 C-22.31981958 40.72737498 -22.31981958 40.72737498 -27 40 C-30.31348312 35.02977531 -29.32756183 29.33796407 -29.3125 23.5 C-29.32861328 22.25089844 -29.34472656 21.00179687 -29.36132812 19.71484375 C-29.36197266 18.51988281 -29.36261719 17.32492187 -29.36328125 16.09375 C-29.36626221 14.99740234 -29.36924316 13.90105469 -29.37231445 12.77148438 C-29 10 -29 10 -27.78759766 8.24902344 C-23.96451722 5.57777521 -19.42172728 4.31384835 -15.0625 2.75 C-14.06025391 2.37359375 -13.05800781 1.9971875 -12.02539062 1.609375 C-10.57616211 1.0834375 -10.57616211 1.0834375 -9.09765625 0.546875 C-8.21601807 0.22557617 -7.33437988 -0.09572266 -6.42602539 -0.42675781 C-3.78165673 -1.05159203 -2.48268579 -1.07776548 0 0 Z " fill="#F10044" transform="translate(552,713)"/>
</svg>
